<svg id="Calque_2" data-name="Calque 2" xmlns="http://www.w3.org/2000/svg" viewBox="0 0 125.99 127.26"><defs><style>.cls-1{fill:#795439;}</style></defs><title>motif carte noeud central theme clair</title><path class="cls-1" d="M71.63,106.16l.94,0a34.88,34.88,0,0,0,10.94-2.3l.88-.36a35,35,0,0,0,18.33-18,44.72,44.72,0,0,1-11.5-1.35,24.12,24.12,0,0,1-8,7.81c-.26.16-.52.32-.79.46A23.89,23.89,0,0,1,72,95.37l-.88,0-.64,0-.64,0A32.94,32.94,0,0,0,69,106.11c.44,0,.87.08,1.31.09S71.19,106.17,71.63,106.16Z" transform="translate(-7.54 -7.34)"/><path class="cls-1" d="M71,91.48c.32,1,.61,2,.85,3a22.76,22.76,0,0,0,10.32-2.9,43.83,43.83,0,0,0-4.33-10.69A32.63,32.63,0,0,0,71,91.48Z" transform="translate(-7.54 -7.34)"/><path class="cls-1" d="M71.4,133l2.81-3.57c.86-1.09,1.64-2.22,2.38-3.37l.5-.82A43.79,43.79,0,0,0,83.47,105a1.09,1.09,0,0,0,0-.18,35.28,35.28,0,0,1-11,2.24,33.93,33.93,0,0,1-1.89,7.28c-.12.33-.24.66-.38,1l0-.09-.12.32c-.17-.44-.31-.88-.46-1.33a33.39,33.39,0,0,1-1.79-11.31,33,33,0,0,1,2.18-11.24c.17-.44.32-.88.51-1.31a33.33,33.33,0,0,1,6.89-10.28c.22-.23.43-.47.65-.69s.47-.4.7-.61c-.63-.39-1.25-.8-1.86-1.22-.84-.58-1.65-1.19-2.44-1.82a44.53,44.53,0,0,1-3.49-3.09l-.46-.45A46,46,0,0,0,64.08,80l-.5.82a43.93,43.93,0,0,0-6.06,17.42,45.94,45.94,0,0,0-.3,5.11c0,.24,0,.47,0,.71s0,.29,0,.44a44,44,0,0,0,5.56,20.31c.16.27.31.55.47.83.73,1.24,1.51,2.46,2.37,3.65L68.3,133c.5.56,1,1.1,1.53,1.63C70.37,134.09,70.89,133.57,71.4,133Z" transform="translate(-7.54 -7.34)"/><path class="cls-1" d="M71,91.48c.32,1,.61,2,.85,3a22.76,22.76,0,0,0,10.32-2.9,43.83,43.83,0,0,0-4.33-10.69A32.63,32.63,0,0,0,71,91.48Z" transform="translate(-7.54 -7.34)"/><path class="cls-1" d="M71.4,133l2.81-3.57c.86-1.09,1.64-2.22,2.38-3.37l.5-.82A43.79,43.79,0,0,0,83.47,105a1.09,1.09,0,0,0,0-.18,35.28,35.28,0,0,1-11,2.24,33.93,33.93,0,0,1-1.89,7.28c-.12.33-.24.66-.38,1l0-.09-.12.32c-.17-.44-.31-.88-.46-1.33a33.39,33.39,0,0,1-1.79-11.31,33,33,0,0,1,2.18-11.24c.17-.44.32-.88.51-1.31a33.33,33.33,0,0,1,6.89-10.28c.22-.23.43-.47.65-.69s.47-.4.7-.61c-.63-.39-1.25-.8-1.86-1.22-.84-.58-1.65-1.19-2.44-1.82a44.53,44.53,0,0,1-3.49-3.09l-.46-.45A46,46,0,0,0,64.08,80l-.5.82a43.93,43.93,0,0,0-6.06,17.42,45.94,45.94,0,0,0-.3,5.11c0,.24,0,.47,0,.71s0,.29,0,.44a44,44,0,0,0,5.56,20.31c.16.27.31.55.47.83.73,1.24,1.51,2.46,2.37,3.65L68.3,133c.5.56,1,1.1,1.53,1.63C70.37,134.09,70.89,133.57,71.4,133Z" transform="translate(-7.54 -7.34)"/><path class="cls-1" d="M36,72.07c0,.31,0,.62,0,.94A34.37,34.37,0,0,0,38.29,84c.11.3.23.59.36.88a35,35,0,0,0,17.91,18.36,45.18,45.18,0,0,1,1.37-11.5,24.09,24.09,0,0,1-7.79-8c-.16-.26-.32-.52-.47-.79a23.94,23.94,0,0,1-2.9-10.42c0-.3,0-.59,0-.89s0-.42,0-.64,0-.43.05-.64A33.22,33.22,0,0,0,36,69.45c0,.43-.08.86-.09,1.31S36,71.63,36,72.07Z" transform="translate(-7.54 -7.34)"/><path class="cls-1" d="M50.66,71.44c-1,.32-2,.61-3,.85a23,23,0,0,0,2.88,10.32,43.69,43.69,0,0,0,10.7-4.31A32.49,32.49,0,0,0,50.66,71.44Z" transform="translate(-7.54 -7.34)"/><path class="cls-1" d="M9.11,71.79l3.57,2.82A40.86,40.86,0,0,0,16,77l.81.5a44,44,0,0,0,20.29,6.42h.19a35.11,35.11,0,0,1-2.22-11.06A33.63,33.63,0,0,1,27.83,71c-.33-.13-.67-.25-1-.39l.09,0-.32-.12c.44-.17.88-.31,1.33-.46a33,33,0,0,1,22.55.43c.44.17.88.32,1.31.51a33.34,33.34,0,0,1,10.27,6.91c.22.22.47.43.69.65s.4.47.6.7c.4-.63.8-1.25,1.22-1.85.59-.84,1.2-1.65,1.83-2.44a44.65,44.65,0,0,1,3.1-3.49l.45-.45a42.13,42.13,0,0,0-3.41-3.14,45.13,45.13,0,0,0-4.42-3.24l-.82-.5A43.93,43.93,0,0,0,43.9,58a46,46,0,0,0-5.11-.31H37.64a43.8,43.8,0,0,0-20.32,5.53c-.27.15-.55.3-.83.47A42,42,0,0,0,12.84,66L9.17,68.69c-.56.5-1.1,1-1.63,1.53C8.05,70.75,8.57,71.28,9.11,71.79Z" transform="translate(-7.54 -7.34)"/><path class="cls-1" d="M50.66,71.44c-1,.32-2,.61-3,.85a23,23,0,0,0,2.88,10.32,43.69,43.69,0,0,0,10.7-4.31A32.49,32.49,0,0,0,50.66,71.44Z" transform="translate(-7.54 -7.34)"/><path class="cls-1" d="M9.11,71.79l3.57,2.82A40.86,40.86,0,0,0,16,77l.81.5a44,44,0,0,0,20.29,6.42h.19a35.11,35.11,0,0,1-2.22-11.06A33.63,33.63,0,0,1,27.83,71c-.33-.13-.67-.25-1-.39l.09,0-.32-.12c.44-.17.88-.31,1.33-.46a33,33,0,0,1,22.55.43c.44.17.88.32,1.31.51a33.34,33.34,0,0,1,10.27,6.91c.22.22.47.43.69.65s.4.47.6.7c.4-.63.8-1.25,1.22-1.85.59-.84,1.2-1.65,1.83-2.44a44.65,44.65,0,0,1,3.1-3.49l.45-.45a42.13,42.13,0,0,0-3.41-3.14,45.13,45.13,0,0,0-4.42-3.24l-.82-.5A43.93,43.93,0,0,0,43.9,58a46,46,0,0,0-5.11-.31H37.64a43.8,43.8,0,0,0-20.32,5.53c-.27.15-.55.3-.83.47A42,42,0,0,0,12.84,66L9.17,68.69c-.56.5-1.1,1-1.63,1.53C8.05,70.75,8.57,71.28,9.11,71.79Z" transform="translate(-7.54 -7.34)"/><path class="cls-1" d="M69.5,35.79l-.94,0a34.65,34.65,0,0,0-10.94,2.29l-.87.37a35,35,0,0,0-18.34,18,44.74,44.74,0,0,1,11.51,1.35,24.06,24.06,0,0,1,8-7.82l.79-.46A23.74,23.74,0,0,1,69.1,46.58c.3,0,.59,0,.89,0s.42,0,.64,0,.43,0,.64,0a32.94,32.94,0,0,0,.85-10.74c-.43,0-.86-.08-1.31-.09S69.94,35.78,69.5,35.79Z" transform="translate(-7.54 -7.34)"/><path class="cls-1" d="M70.16,50.46c-.32-1-.62-2-.86-3A23,23,0,0,0,59,50.37a43.83,43.83,0,0,0,4.33,10.69A32.53,32.53,0,0,0,70.16,50.46Z" transform="translate(-7.54 -7.34)"/><path class="cls-1" d="M69.73,8.91l-2.81,3.58c-.86,1.09-1.64,2.22-2.38,3.36-.17.27-.33.55-.49.82A43.72,43.72,0,0,0,57.66,37a1.09,1.09,0,0,1,0,.18,35.69,35.69,0,0,1,11.06-2.24,33.1,33.1,0,0,1,1.88-7.27c.13-.34.24-.67.38-1l0,.09a3,3,0,0,0,.12-.32c.17.44.31.89.46,1.33a33.15,33.15,0,0,1,1.8,11.31A33.53,33.53,0,0,1,71.2,50.3c-.17.43-.32.88-.51,1.3A33.43,33.43,0,0,1,63.8,61.89c-.22.22-.43.47-.65.69s-.47.4-.7.6c.63.39,1.25.8,1.86,1.22.84.58,1.65,1.19,2.44,1.82,1.22,1,2.38,2,3.49,3.09l.46.46q1.65-1.63,3.13-3.42a44,44,0,0,0,3.23-4.43l.5-.82a43.31,43.31,0,0,0,6.36-22.53V37.42a43.82,43.82,0,0,0-5.57-20.3l-.47-.84c-.73-1.24-1.51-2.46-2.37-3.65L72.83,9c-.5-.55-1-1.1-1.53-1.63C70.76,7.85,70.24,8.38,69.73,8.91Z" transform="translate(-7.54 -7.34)"/><path class="cls-1" d="M70.16,50.46c-.32-1-.62-2-.86-3A23,23,0,0,0,59,50.37a43.83,43.83,0,0,0,4.33,10.69A32.53,32.53,0,0,0,70.16,50.46Z" transform="translate(-7.54 -7.34)"/><path class="cls-1" d="M69.73,8.91l-2.81,3.58c-.86,1.09-1.64,2.22-2.38,3.36-.17.27-.33.55-.49.82A43.72,43.72,0,0,0,57.66,37a1.09,1.09,0,0,1,0,.18,35.69,35.69,0,0,1,11.06-2.24,33.1,33.1,0,0,1,1.88-7.27c.13-.34.24-.67.38-1l0,.09a3,3,0,0,0,.12-.32c.17.44.31.89.46,1.33a33.15,33.15,0,0,1,1.8,11.31A33.53,33.53,0,0,1,71.2,50.3c-.17.43-.32.88-.51,1.3A33.43,33.43,0,0,1,63.8,61.89c-.22.22-.43.47-.65.69s-.47.4-.7.6c.63.39,1.25.8,1.86,1.22.84.58,1.65,1.19,2.44,1.82,1.22,1,2.38,2,3.49,3.09l.46.46q1.65-1.63,3.13-3.42a44,44,0,0,0,3.23-4.43l.5-.82a43.31,43.31,0,0,0,6.36-22.53V37.42a43.82,43.82,0,0,0-5.57-20.3l-.47-.84c-.73-1.24-1.51-2.46-2.37-3.65L72.83,9c-.5-.55-1-1.1-1.53-1.63C70.76,7.85,70.24,8.38,69.73,8.91Z" transform="translate(-7.54 -7.34)"/><path class="cls-1" d="M105.1,70.18c0-.31,0-.62,0-.93a34.7,34.7,0,0,0-2.2-11l-.36-.88a34.93,34.93,0,0,0-17.79-18.5,44.75,44.75,0,0,1-1.44,11.5,24.19,24.19,0,0,1,7.74,8c.15.27.31.53.45.8a23.83,23.83,0,0,1,2.83,10.44c0,.29,0,.59,0,.88s0,.43,0,.65,0,.42,0,.64a33.18,33.18,0,0,0,10.73,1c0-.44.09-.87.1-1.31S105.11,70.62,105.1,70.18Z" transform="translate(-7.54 -7.34)"/><path class="cls-1" d="M90.42,70.71c1-.31,2-.6,3-.83a22.83,22.83,0,0,0-2.81-10.34,44,44,0,0,0-10.73,4.24A32.4,32.4,0,0,0,90.42,70.71Z" transform="translate(-7.54 -7.34)"/><path class="cls-1" d="M132,70.65l-3.55-2.84c-1.08-.87-2.2-1.66-3.34-2.41l-.82-.5A43.69,43.69,0,0,0,104,58.34l-.18,0A35.5,35.5,0,0,1,106,69.4a33.58,33.58,0,0,1,7.26,1.94c.33.14.67.25,1,.4l-.09,0,.32.12c-.44.16-.89.3-1.33.45a33,33,0,0,1-22.55-.59c-.44-.17-.88-.33-1.31-.52a33.68,33.68,0,0,1-10.22-7c-.22-.23-.46-.43-.68-.66s-.4-.47-.6-.7c-.4.63-.81,1.24-1.24,1.85-.58.83-1.2,1.63-1.84,2.42a44.48,44.48,0,0,1-3.12,3.46c-.15.16-.3.31-.46.46a46.08,46.08,0,0,0,3.39,3.16,44,44,0,0,0,4.4,3.27l.81.5a43.12,43.12,0,0,0,22.48,6.56l.71,0h.44a43.8,43.8,0,0,0,20.35-5.38l.84-.47c1.25-.72,2.48-1.48,3.67-2.33l3.68-2.65c.56-.49,1.11-1,1.65-1.51Q132.77,71.43,132,70.65Z" transform="translate(-7.54 -7.34)"/><path class="cls-1" d="M90.42,70.71c1-.31,2-.6,3-.83a22.83,22.83,0,0,0-2.81-10.34,44,44,0,0,0-10.73,4.24A32.4,32.4,0,0,0,90.42,70.71Z" transform="translate(-7.54 -7.34)"/><path class="cls-1" d="M132,70.65l-3.55-2.84c-1.08-.87-2.2-1.66-3.34-2.41l-.82-.5A43.69,43.69,0,0,0,104,58.34l-.18,0A35.5,35.5,0,0,1,106,69.4a33.58,33.58,0,0,1,7.26,1.94c.33.14.67.25,1,.4l-.09,0,.32.12c-.44.16-.89.3-1.33.45a33,33,0,0,1-22.55-.59c-.44-.17-.88-.33-1.31-.52a33.68,33.68,0,0,1-10.22-7c-.22-.23-.46-.43-.68-.66s-.4-.47-.6-.7c-.4.63-.81,1.24-1.24,1.85-.58.83-1.2,1.63-1.84,2.42a44.48,44.48,0,0,1-3.12,3.46c-.15.16-.3.31-.46.46a46.08,46.08,0,0,0,3.39,3.16,44,44,0,0,0,4.4,3.27l.81.5a43.12,43.12,0,0,0,22.48,6.56l.71,0h.44a43.8,43.8,0,0,0,20.35-5.38l.84-.47c1.25-.72,2.48-1.48,3.67-2.33l3.68-2.65c.56-.49,1.11-1,1.65-1.51Q132.77,71.43,132,70.65Z" transform="translate(-7.54 -7.34)"/></svg>