<svg xmlns="http://www.w3.org/2000/svg" xmlns:xlink="http://www.w3.org/1999/xlink" viewBox="0 0 146.84 146.84"><defs><style>.cls-1{fill:#ecf1f9;}</style></defs><title>motif carte angle theme clair</title><path class="cls-1" d="M121.1,50.06c.2-.21.38-.44.57-.66.44-.49.88-1,1.31-1.49.22-.28.43-.56.65-.83.38-.47.76-.93,1.12-1.41.23-.3.45-.62.67-.93.34-.46.68-.91,1-1.38s.44-.67.66-1,.61-.91.9-1.38.41-.68.61-1,.58-1,.85-1.43.37-.69.56-1,.53-1,.78-1.47.35-.73.53-1.09.48-1,.7-1.48.32-.75.48-1.12l.64-1.5c.15-.38.28-.77.43-1.15s.39-1,.56-1.53.26-.79.39-1.18.34-1,.5-1.54.22-.82.34-1.22.29-1,.42-1.54.19-.85.29-1.27.24-1,.35-1.54.16-.87.24-1.3A145.9,145.9,0,0,0,138.9,3.35l-6.82.46-1.59.11A64.18,64.18,0,0,0,93.56,18.64c-.69.58-1.36,1.17-2,1.77s-1.4,1.31-2.08,2-1.2,1.22-1.77,1.85c-.21.22-.41.45-.61.68-.36.4-.73.81-1.08,1.22l-.71.87c-.29.36-.59.71-.88,1.08l-.75,1c-.25.33-.5.65-.74,1s-.52.73-.77,1.1l-.64.93c-.26.4-.52.8-.77,1.2s-.37.58-.55.88-.51.85-.75,1.28l-.48.83c-.25.45-.49.91-.73,1.37l-.4.77c-.25.48-.48,1-.71,1.46-.12.24-.23.47-.34.71-.24.51-.46,1-.68,1.55-.1.21-.19.43-.28.65-.23.54-.44,1.09-.65,1.63l-.23.6c-.21.56-.41,1.13-.6,1.7-.06.19-.13.37-.18.55-.2.59-.39,1.19-.56,1.78l-.15.48c-.17.62-.35,1.24-.51,1.87,0,.14-.07.28-.1.42-.16.64-.32,1.29-.46,1.94,0,.12-.05.24-.07.36-.14.67-.28,1.34-.4,2a.3.3,0,0,1,0,.1A52,52,0,0,0,85.5,54.74c0-.21.12-.4.18-.6.18-.67.38-1.32.59-2,.14-.43.28-.85.43-1.28.23-.64.46-1.27.71-1.9.17-.44.36-.87.54-1.3.26-.61.52-1.21.81-1.81s.44-.9.67-1.35.58-1.13.89-1.68.56-1,.84-1.43.61-1,.93-1.51.7-1,1.06-1.54.61-.88.93-1.31c.45-.59.93-1.16,1.4-1.74.28-.33.53-.67.82-1,.78-.9,1.59-1.77,2.44-2.62s1.67-1.61,2.55-2.38c.33-.29.68-.55,1-.83.55-.46,1.09-.91,1.66-1.34s.9-.65,1.36-1,1-.68,1.44-1,1.06-.66,1.6-1,.87-.54,1.32-.79,1.19-.64,1.79-.95c.41-.21.81-.43,1.23-.63.64-.31,1.29-.59,2-.88l1.17-.49c.68-.27,1.38-.53,2.08-.78l1.13-.39c.71-.23,1.44-.45,2.17-.66l.55-.16,1.1-.28c.22-.05.44-.13.67-.18h0c-.05.23-.13.46-.18.69l-.27,1.08c0,.18-.12.36-.17.55-.21.73-.42,1.46-.66,2.18-.12.38-.25.75-.39,1.13-.24.7-.5,1.4-.78,2.09-.16.39-.32.77-.49,1.16-.28.66-.57,1.32-.88,2-.2.41-.41.81-.62,1.22-.31.6-.62,1.21-1,1.8s-.52.88-.78,1.32-.65,1.08-1,1.61-.66,1-1,1.44-.63.92-1,1.37-.89,1.1-1.34,1.65c-.28.34-.55.7-.84,1-.76.88-1.56,1.73-2.38,2.56s-1.72,1.66-2.62,2.43c-.32.28-.66.54-1,.81-.58.48-1.15,1-1.75,1.41-.42.31-.85.6-1.28.91s-1,.73-1.56,1.08-1,.61-1.48.91-1,.59-1.46.86-1.08.58-1.63.86-.92.48-1.39.7-1.17.53-1.76.79l-1.35.56c-.61.24-1.24.47-1.86.69l-1.31.45c-.64.2-1.29.4-1.94.58l-.61.16c-.44.12-.88.25-1.33.35l-.46.12h0a53.52,53.52,0,0,1-13.42,1.34h0l-1.23,0-.37,0h-.07c-.62,0-1.24-.08-1.86-.13.5,1.85,1,3.64,1.34,5.34.6,2.58,1.09,4.94,1.47,7,0,.2.07.4.11.59a.69.69,0,0,1,0,.13c.3,0,.6,0,.9,0A66.6,66.6,0,0,0,83.73,70c.49-.08,1-.15,1.47-.24l.12,0h.06c.71-.13,1.42-.27,2.12-.42l.25-.05q1-.22,2-.48l.31-.08c.66-.17,1.31-.35,2-.54l.39-.11c.62-.19,1.24-.38,1.86-.59l.46-.16c.6-.2,1.19-.41,1.77-.62l.54-.21c.56-.21,1.12-.44,1.68-.67l.6-.25c.53-.23,1.06-.46,1.59-.71l.67-.31,1.49-.73.74-.39c.46-.24.93-.49,1.39-.75l.81-.46,1.3-.76.86-.55c.41-.25.81-.5,1.2-.77l.93-.63,1.1-.77c.34-.24.66-.49,1-.74l1-.76c.37-.28.72-.58,1.08-.87l.87-.71,1.22-1.09.67-.59c.63-.58,1.24-1.17,1.85-1.77S120.46,50.77,121.1,50.06Z" /><path class="cls-1" d="M137.49,131.63l-.25-1.59s0-.12,0-.23l0-.08a.6.6,0,0,0,0-.12v0c0-.1,0-.22-.07-.36h0l0-.15v0c0-.1,0-.2-.06-.32h0a1.18,1.18,0,0,1,0-.2v0c0-.12,0-.24-.08-.37h0c0-.08,0-.17-.05-.26h0c0-.14-.06-.28-.1-.44h0c0-.1-.05-.21-.07-.31s0-.15-.05-.22l-.06-.25-.09-.37c0-.1,0-.21-.07-.31a1.46,1.46,0,0,1,0-.2l-.1-.37v0l-.09-.35-.06-.23c0-.13-.07-.27-.11-.41s-.11-.41-.17-.62-.08-.3-.13-.45h0c0-.19-.11-.38-.17-.58l0-.07c0-.16-.09-.32-.14-.48l-.21-.7c0-.16-.11-.34-.16-.51h0l-.09-.28-.15-.45c0-.17-.12-.36-.18-.54h0c-.06-.19-.13-.39-.2-.59a.78.78,0,0,0,0-.14c-.06-.2-.13-.4-.2-.59l-.24-.68,0-.08c-.08-.2-.15-.41-.23-.61l-.29-.78-.25-.64-.19-.48c0-.11-.08-.21-.13-.32l-.27-.66c-.11-.26-.22-.53-.34-.8s-.19-.46-.29-.69l-.36-.81-.33-.71c-.12-.27-.25-.54-.38-.82l-.35-.72-.09-.18c-.11-.21-.21-.43-.32-.65l-.37-.72-.3-.57c-.05-.09-.1-.18-.14-.27-.14-.24-.27-.49-.4-.73s-.31-.56-.47-.84-.28-.5-.43-.74a2,2,0,0,0-.11-.2l-.38-.63-.45-.75c-.18-.28-.35-.56-.53-.83l-.48-.75-.52-.77,0,0-.51-.75c-.19-.27-.39-.54-.58-.82l-.55-.74c-.2-.27-.41-.54-.62-.8s-.37-.49-.57-.73l-.31-.39-.34-.41-.6-.72-.69-.78-.63-.7-.12-.14-.6-.63-.67-.69c-.42-.43-.85-.85-1.3-1.27s-1-1-1.54-1.44l-.49-.4c-.38-.33-.76-.65-1.16-1l-.64-.47-1.13-.84-.72-.49c-.37-.25-.74-.51-1.13-.75l-.8-.5-1.13-.69-.87-.49c-.37-.22-.75-.43-1.14-.64l-.92-.48-1.13-.58-1-.49-1.1-.52-1.08-.48-1-.46-1.17-.49-1-.4-1.26-.5L96,78.93l-1.37-.51-.75-.27-1.5-.52-.58-.19-1.67-.54-.35-.11-1.87-.58-.06,0-2-.59a54.2,54.2,0,0,0,4.09,14.64l2.54.92.37.15c.75.28,1.48.58,2.21.88l.67.28c.64.27,1.28.55,1.9.84l.89.42c.55.26,1.09.52,1.62.79l1,.56,1.35.75c.4.24.77.48,1.15.72s.73.45,1.07.69.86.61,1.27.92c.25.19.52.38.76.57a22.81,22.81,0,0,1,1.77,1.58l.15.15.86.83c.26.26.48.53.73.79l.22.24c.44.47.87.94,1.28,1.43l.59.7c.12.15.23.3.36.45.44.55.86,1.11,1.27,1.67l.25.35.54.76c.38.56.75,1.12,1.11,1.69l.05.08c.25.4.51.81.75,1.21l0,.06c.35.58.67,1.16,1,1.74.14.26.29.51.42.76,0,.06,0,.11.08.16.33.63.63,1.24.93,1.86l.25.52.11.24c.29.63.57,1.25.83,1.87l.16.36.12.3.59,1.44c0,.09.06.18.1.27l.14.36.12.34c.12.33.26.68.38,1v0h0c.1.29.21.58.3.86-.09-.28-.2-.57-.3-.86-.66-.23-1.3-.49-2-.74a56.28,56.28,0,0,1-10.28-5.32l-.26-.18c-.71-.47-1.41-1-2.1-1.45l-.65-.5c-.57-.42-1.13-.85-1.68-1.3-.38-.3-.75-.63-1.13-1s-.79-.66-1.18-1q-1.14-1-2.25-2.13c-.66-.66-1.3-1.34-1.92-2-.26-.27-.5-.56-.74-.84s-.71-.81-1-1.22-.61-.77-.91-1.15-.5-.63-.74-1-.67-.92-1-1.38l-.52-.75c-.36-.52-.7-1-1-1.59l-.35-.55c-.37-.59-.72-1.19-1.06-1.8-.07-.11-.13-.22-.19-.33-.38-.67-.74-1.34-1.08-2l0-.07C89.4,93,89,92.23,88.7,91.48s-.58-1.27-.84-1.92h0a55.68,55.68,0,0,1-3.76-14.42h0C84,74.57,84,74,83.94,73.45s-.1-1.2-.13-1.79c0,0,0-.06,0-.09-1.68.25-3.36.46-5,.58a67.12,67.12,0,0,1-7,.16l-.48,0H71c.13,2,.36,4.09.67,6.12a72.35,72.35,0,0,0,1.51,7.22c0,.13.08.25.11.38.13.46.28.91.41,1.36.07.22.13.43.2.64.31,1,.64,2,1,3l.42,1.1c.36,1,.75,2,1.16,2.93.17.4.36.79.54,1.19.41.92.84,1.84,1.29,2.75.23.45.48.9.72,1.35.45.84.9,1.69,1.38,2.52.3.51.63,1,.95,1.53.46.75.92,1.5,1.42,2.24.4.59.84,1.18,1.26,1.77s.89,1.27,1.37,1.89,1.16,1.44,1.76,2.15c.39.46.76.94,1.16,1.4q1.53,1.76,3.2,3.42a69.9,69.9,0,0,0,38.63,19.85l1.59.26,6.85,1.09Z" /><path class="cls-1" d="M70.08,78.55c-.08-.53-.16-1.06-.23-1.6-.2-1.58-.36-3.16-.46-4.75,0-.11,0-.22,0-.33l-.06-1.28c0-.11,0-.23,0-.35a1.21,1.21,0,0,0,0-.18c-.07-.7-1.59-7.8-2.89-12.58-.15-.55-.3-1.11-.46-1.68s-.37-1.28-.57-1.93l-.06-.22q-.25-.87-.54-1.74l-.15-.48q-.24-.78-.51-1.56c-.07-.23-.15-.45-.23-.68-.16-.48-.32-.95-.49-1.43-.1-.27-.19-.54-.29-.82-.16-.44-.32-.87-.49-1.31l-.36-.94c-.15-.4-.31-.81-.48-1.21s-.27-.68-.41-1l-.48-1.13c-.15-.36-.31-.72-.47-1.08l-.48-1c-.17-.38-.35-.75-.53-1.13s-.31-.65-.47-1L58.34,36,57.86,35c-.21-.39-.43-.78-.65-1.16s-.31-.57-.48-.85-.46-.77-.7-1.15-.32-.52-.49-.78-.5-.76-.76-1.14l-.49-.72c-.27-.38-.55-.75-.83-1.13-.16-.21-.31-.42-.48-.63-.31-.4-.63-.78-1-1.16-.13-.16-.27-.34-.41-.5-.46-.53-.94-1-1.42-1.53h0c-.41-.43-.83-.85-1.25-1.27l0,0,0,0-.7-.67-.29-.28-1-.94L46.75,21l0,0C31.8,7.71,12.37,4.49,11.48,4.35l-1.6-.26L3,3,4.13,9.84l.26,1.6A69.93,69.93,0,0,0,24.24,50.07q1.67,1.66,3.42,3.2c.46.41.94.78,1.41,1.17.71.59,1.42,1.19,2.14,1.75s1.27.92,1.91,1.38,1.16.86,1.76,1.26,1.5,1,2.25,1.42c.51.31,1,.64,1.52.94.84.49,1.68.94,2.53,1.39l1.34.71c.91.46,1.83.88,2.76,1.3l1.19.53c1,.42,2,.8,2.94,1.17l1.09.41c1,.36,2,.69,3,1l.63.19a143.67,143.67,0,0,0-4.13-15c-.77-.34-1.52-.71-2.27-1.09h0c-.7-.35-1.39-.72-2.07-1.1l-.29-.16c-.62-.35-1.23-.72-1.83-1.09l-.52-.33c-.55-.34-1.08-.69-1.62-1l-.72-.51c-.47-.33-.94-.66-1.4-1l-.93-.73c-.39-.3-.78-.6-1.17-.92s-.81-.69-1.21-1l-.86-.75c-.68-.62-1.36-1.26-2-1.92S31.68,39.69,31,38.92c-.35-.39-.68-.8-1-1.2s-.63-.73-.93-1.1c-.45-.56-.89-1.14-1.32-1.71l-.47-.63q-.76-1.05-1.47-2.13a1.88,1.88,0,0,1-.16-.23,56,56,0,0,1-5.33-10.31c-.26-.64-.51-1.28-.74-1.93l0,0v0h0l1.28.46.64.25.39.16,1.33.54,1.1.48,1.37.61,1.14.56,1.39.7,1.17.65c.47.25.93.51,1.39.78s.79.49,1.18.74.7.44,1,.66l.14.09.19.13c.4.26.79.54,1.18.82l1,.75.72.56c.25.2.5.39.75.6s.69.58,1,.87l1.1,1,.25.23c.26.25.53.48.78.73s.58.59.86.89l.15.15c.54.54,1.06,1.14,1.58,1.77.19.24.37.5.56.75.31.42.63.83.93,1.27s.46.71.69,1.07.48.76.72,1.16l.75,1.35.56,1c.27.53.53,1.07.8,1.62.14.3.28.59.41.88.29.63.57,1.27.85,1.92l.27.65c.31.74.61,1.48.9,2.23a3.42,3.42,0,0,0,.13.34c.32.85.63,1.7.93,2.56.23.67.47,1.34.69,2v0h0a148.75,148.75,0,0,1,4,14.68h0c.11.5.2,1,.3,1.44l.06.28v0c.16.79.31,1.54.45,2.27v.07c.13.69.26,1.36.37,2,0,.15,0,.28.07.42.08.51.17,1,.24,1.47.1.62.19,1.2.26,1.71l.22,1.6.48,3.48,3.48.48,1.6.21,1.73.26,1.39.23.51.09c.61.1,1.26.22,1.93.35l.16,0c.72.13,1.45.28,2.22.44h0C70.88,83,70.43,80.8,70.08,78.55Z" /></svg>